<mxfile host="Electron" agent="Mozilla/5.0 (X11; Linux x86_64) AppleWebKit/537.36 (KHTML, like Gecko) draw.io/26.0.9 Chrome/128.0.6613.186 Electron/32.2.5 Safari/537.36" version="26.0.9">
  <diagram name="Page-1" id="nUzZmbJj2lZDRRPwRXEb">
    <mxGraphModel dx="1368" dy="838" grid="1" gridSize="10" guides="1" tooltips="1" connect="1" arrows="1" fold="1" page="1" pageScale="1" pageWidth="850" pageHeight="1100" math="0" shadow="0">
      <root>
        <mxCell id="0" />
        <mxCell id="1" parent="0" />
        <mxCell id="8WsJuOWBQjt2GqdeVyAg-1" value="AWS Cloud" style="points=[[0,0],[0.25,0],[0.5,0],[0.75,0],[1,0],[1,0.25],[1,0.5],[1,0.75],[1,1],[0.75,1],[0.5,1],[0.25,1],[0,1],[0,0.75],[0,0.5],[0,0.25]];outlineConnect=0;gradientColor=none;html=1;whiteSpace=wrap;fontSize=12;fontStyle=0;shape=mxgraph.aws4.group;grIcon=mxgraph.aws4.group_aws_cloud_alt;strokeColor=#232F3E;fillColor=none;verticalAlign=top;align=left;spacingLeft=30;fontColor=#232F3E;dashed=0;labelBackgroundColor=#ffffff;container=0;pointerEvents=0;collapsible=0;recursiveResize=0;" parent="1" vertex="1">
          <mxGeometry x="40" y="40" width="750" height="740" as="geometry" />
        </mxCell>
        <mxCell id="8WsJuOWBQjt2GqdeVyAg-8" value="AWS Step Functions workflow" style="points=[[0,0],[0.25,0],[0.5,0],[0.75,0],[1,0],[1,0.25],[1,0.5],[1,0.75],[1,1],[0.75,1],[0.5,1],[0.25,1],[0,1],[0,0.75],[0,0.5],[0,0.25]];outlineConnect=0;gradientColor=none;html=1;whiteSpace=wrap;fontSize=12;fontStyle=0;container=1;pointerEvents=0;collapsible=0;recursiveResize=0;shape=mxgraph.aws4.group;grIcon=mxgraph.aws4.group_aws_step_functions_workflow;strokeColor=#CD2264;fillColor=none;verticalAlign=top;align=left;spacingLeft=30;fontColor=#CD2264;dashed=0;" parent="1" vertex="1">
          <mxGeometry x="440" y="85" width="320" height="655" as="geometry" />
        </mxCell>
        <mxCell id="8WsJuOWBQjt2GqdeVyAg-9" value="" style="edgeStyle=orthogonalEdgeStyle;rounded=0;orthogonalLoop=1;jettySize=auto;html=1;" parent="8WsJuOWBQjt2GqdeVyAg-8" source="8WsJuOWBQjt2GqdeVyAg-11" target="8WsJuOWBQjt2GqdeVyAg-14" edge="1">
          <mxGeometry relative="1" as="geometry" />
        </mxCell>
        <mxCell id="8WsJuOWBQjt2GqdeVyAg-10" value="&lt;div&gt;SQS: SendMessage&amp;nbsp;&amp;nbsp;&lt;/div&gt;" style="edgeLabel;html=1;align=center;verticalAlign=middle;resizable=0;points=[];" parent="8WsJuOWBQjt2GqdeVyAg-9" vertex="1" connectable="0">
          <mxGeometry x="-0.1372" y="-3" relative="1" as="geometry">
            <mxPoint as="offset" />
          </mxGeometry>
        </mxCell>
        <mxCell id="8WsJuOWBQjt2GqdeVyAg-11" value="" style="sketch=0;points=[[0,0,0],[0.25,0,0],[0.5,0,0],[0.75,0,0],[1,0,0],[0,1,0],[0.25,1,0],[0.5,1,0],[0.75,1,0],[1,1,0],[0,0.25,0],[0,0.5,0],[0,0.75,0],[1,0.25,0],[1,0.5,0],[1,0.75,0]];outlineConnect=0;fontColor=#232F3E;fillColor=#E7157B;strokeColor=#ffffff;dashed=0;verticalLabelPosition=bottom;verticalAlign=top;align=center;html=1;fontSize=12;fontStyle=0;aspect=fixed;shape=mxgraph.aws4.resourceIcon;resIcon=mxgraph.aws4.step_functions;" parent="8WsJuOWBQjt2GqdeVyAg-8" vertex="1">
          <mxGeometry x="120" y="45" width="60" height="60" as="geometry" />
        </mxCell>
        <mxCell id="8WsJuOWBQjt2GqdeVyAg-12" style="edgeStyle=orthogonalEdgeStyle;rounded=0;orthogonalLoop=1;jettySize=auto;html=1;entryX=0.5;entryY=0;entryDx=0;entryDy=0;" parent="8WsJuOWBQjt2GqdeVyAg-8" source="8WsJuOWBQjt2GqdeVyAg-14" target="8WsJuOWBQjt2GqdeVyAg-16" edge="1">
          <mxGeometry relative="1" as="geometry" />
        </mxCell>
        <mxCell id="8WsJuOWBQjt2GqdeVyAg-13" value="Callback Pattern" style="edgeLabel;html=1;align=center;verticalAlign=middle;resizable=0;points=[];" parent="8WsJuOWBQjt2GqdeVyAg-12" vertex="1" connectable="0">
          <mxGeometry x="-0.2576" y="3" relative="1" as="geometry">
            <mxPoint as="offset" />
          </mxGeometry>
        </mxCell>
        <mxCell id="8WsJuOWBQjt2GqdeVyAg-14" value="" style="sketch=0;points=[[0,0,0],[0.25,0,0],[0.5,0,0],[0.75,0,0],[1,0,0],[0,1,0],[0.25,1,0],[0.5,1,0],[0.75,1,0],[1,1,0],[0,0.25,0],[0,0.5,0],[0,0.75,0],[1,0.25,0],[1,0.5,0],[1,0.75,0]];outlineConnect=0;fontColor=#232F3E;fillColor=#E7157B;strokeColor=#ffffff;dashed=0;verticalLabelPosition=bottom;verticalAlign=top;align=center;html=1;fontSize=12;fontStyle=0;aspect=fixed;shape=mxgraph.aws4.resourceIcon;resIcon=mxgraph.aws4.sqs;" parent="8WsJuOWBQjt2GqdeVyAg-8" vertex="1">
          <mxGeometry x="120" y="195" width="60" height="60" as="geometry" />
        </mxCell>
        <mxCell id="8WsJuOWBQjt2GqdeVyAg-15" value="" style="group" parent="8WsJuOWBQjt2GqdeVyAg-8" vertex="1" connectable="0">
          <mxGeometry x="69.5" y="330" width="161" height="155" as="geometry" />
        </mxCell>
        <mxCell id="8WsJuOWBQjt2GqdeVyAg-16" value="" style="rounded=0;whiteSpace=wrap;html=1;" parent="8WsJuOWBQjt2GqdeVyAg-15" vertex="1">
          <mxGeometry width="161" height="154.99999999999991" as="geometry" />
        </mxCell>
        <mxCell id="8WsJuOWBQjt2GqdeVyAg-17" value="" style="sketch=0;points=[[0,0,0],[0.25,0,0],[0.5,0,0],[0.75,0,0],[1,0,0],[0,1,0],[0.25,1,0],[0.5,1,0],[0.75,1,0],[1,1,0],[0,0.25,0],[0,0.5,0],[0,0.75,0],[1,0.25,0],[1,0.5,0],[1,0.75,0]];outlineConnect=0;fontColor=#232F3E;fillColor=#E7157B;strokeColor=#ffffff;dashed=0;verticalLabelPosition=bottom;verticalAlign=top;align=center;html=1;fontSize=12;fontStyle=0;aspect=fixed;shape=mxgraph.aws4.resourceIcon;resIcon=mxgraph.aws4.step_functions;" parent="8WsJuOWBQjt2GqdeVyAg-15" vertex="1">
          <mxGeometry width="21.923178588635093" height="21.923178588635093" as="geometry" />
        </mxCell>
        <mxCell id="8WsJuOWBQjt2GqdeVyAg-18" value="" style="endArrow=none;dashed=1;html=1;rounded=0;exitX=0;exitY=0.5;exitDx=0;exitDy=0;entryX=1;entryY=0.5;entryDx=0;entryDy=0;elbow=horizontal;" parent="8WsJuOWBQjt2GqdeVyAg-15" source="8WsJuOWBQjt2GqdeVyAg-16" target="8WsJuOWBQjt2GqdeVyAg-16" edge="1">
          <mxGeometry width="50" height="50" relative="1" as="geometry">
            <mxPoint x="400.00000000000006" y="65.90136054421762" as="sourcePoint" />
            <mxPoint x="450.00000000000006" as="targetPoint" />
          </mxGeometry>
        </mxCell>
        <mxCell id="8WsJuOWBQjt2GqdeVyAg-19" value="Wait for Response" style="edgeLabel;html=1;align=center;verticalAlign=middle;resizable=0;points=[];" parent="8WsJuOWBQjt2GqdeVyAg-18" vertex="1" connectable="0">
          <mxGeometry x="-0.1979" y="2" relative="1" as="geometry">
            <mxPoint x="16" y="2" as="offset" />
          </mxGeometry>
        </mxCell>
        <mxCell id="8WsJuOWBQjt2GqdeVyAg-20" value="Ask Task&lt;div&gt;&lt;br&gt;&lt;/div&gt;" style="text;html=1;align=center;verticalAlign=middle;whiteSpace=wrap;rounded=0;" parent="8WsJuOWBQjt2GqdeVyAg-15" vertex="1">
          <mxGeometry x="58.00000000000001" y="6.590136054421767" width="60.00000000000001" height="39.54081632653064" as="geometry" />
        </mxCell>
        <mxCell id="8WsJuOWBQjt2GqdeVyAg-21" value="" style="sketch=0;points=[[0,0,0],[0.25,0,0],[0.5,0,0],[0.75,0,0],[1,0,0],[0,1,0],[0.25,1,0],[0.5,1,0],[0.75,1,0],[1,1,0],[0,0.25,0],[0,0.5,0],[0,0.75,0],[1,0.25,0],[1,0.5,0],[1,0.75,0]];outlineConnect=0;fontColor=#232F3E;fillColor=#E7157B;strokeColor=#ffffff;dashed=0;verticalLabelPosition=bottom;verticalAlign=top;align=center;html=1;fontSize=12;fontStyle=0;aspect=fixed;shape=mxgraph.aws4.resourceIcon;resIcon=mxgraph.aws4.step_functions;" parent="8WsJuOWBQjt2GqdeVyAg-8" vertex="1">
          <mxGeometry x="120" y="555" width="60" height="60" as="geometry" />
        </mxCell>
        <mxCell id="8WsJuOWBQjt2GqdeVyAg-22" style="edgeStyle=orthogonalEdgeStyle;rounded=0;orthogonalLoop=1;jettySize=auto;html=1;entryX=0.5;entryY=0;entryDx=0;entryDy=0;entryPerimeter=0;" parent="8WsJuOWBQjt2GqdeVyAg-8" source="8WsJuOWBQjt2GqdeVyAg-16" target="8WsJuOWBQjt2GqdeVyAg-21" edge="1">
          <mxGeometry relative="1" as="geometry" />
        </mxCell>
        <mxCell id="8WsJuOWBQjt2GqdeVyAg-23" value="Init Flow" style="text;html=1;align=center;verticalAlign=middle;resizable=0;points=[];autosize=1;strokeColor=none;fillColor=none;" parent="8WsJuOWBQjt2GqdeVyAg-8" vertex="1">
          <mxGeometry x="115" y="25" width="70" height="30" as="geometry" />
        </mxCell>
        <mxCell id="8WsJuOWBQjt2GqdeVyAg-24" value="End Flow" style="text;html=1;align=center;verticalAlign=middle;resizable=0;points=[];autosize=1;strokeColor=none;fillColor=none;" parent="8WsJuOWBQjt2GqdeVyAg-8" vertex="1">
          <mxGeometry x="115" y="615" width="70" height="30" as="geometry" />
        </mxCell>
        <mxCell id="8WsJuOWBQjt2GqdeVyAg-25" style="rounded=0;orthogonalLoop=1;jettySize=auto;html=1;exitX=0;exitY=0.25;exitDx=0;exitDy=0;entryX=1;entryY=0.5;entryDx=0;entryDy=0;entryPerimeter=0;" parent="1" source="8WsJuOWBQjt2GqdeVyAg-16" target="8WsJuOWBQjt2GqdeVyAg-2" edge="1">
          <mxGeometry relative="1" as="geometry" />
        </mxCell>
        <mxCell id="8WsJuOWBQjt2GqdeVyAg-50" value="Region" style="points=[[0,0],[0.25,0],[0.5,0],[0.75,0],[1,0],[1,0.25],[1,0.5],[1,0.75],[1,1],[0.75,1],[0.5,1],[0.25,1],[0,1],[0,0.75],[0,0.5],[0,0.25]];outlineConnect=0;gradientColor=none;html=1;whiteSpace=wrap;fontSize=12;fontStyle=0;container=1;pointerEvents=0;collapsible=0;recursiveResize=0;shape=mxgraph.aws4.group;grIcon=mxgraph.aws4.group_region;strokeColor=#00A4A6;fillColor=none;verticalAlign=top;align=left;spacingLeft=30;fontColor=#147EBA;dashed=1;" parent="1" vertex="1">
          <mxGeometry x="60" y="70" width="710" height="690" as="geometry" />
        </mxCell>
        <mxCell id="8WsJuOWBQjt2GqdeVyAg-35" value="" style="sketch=0;points=[[0,0,0],[0.25,0,0],[0.5,0,0],[0.75,0,0],[1,0,0],[0,1,0],[0.25,1,0],[0.5,1,0],[0.75,1,0],[1,1,0],[0,0.25,0],[0,0.5,0],[0,0.75,0],[1,0.25,0],[1,0.5,0],[1,0.75,0]];outlineConnect=0;fontColor=#232F3E;fillColor=#C925D1;strokeColor=#ffffff;dashed=0;verticalLabelPosition=bottom;verticalAlign=top;align=center;html=1;fontSize=12;fontStyle=0;aspect=fixed;shape=mxgraph.aws4.resourceIcon;resIcon=mxgraph.aws4.dynamodb;" parent="8WsJuOWBQjt2GqdeVyAg-50" vertex="1">
          <mxGeometry x="10" y="348" width="71" height="71" as="geometry" />
        </mxCell>
        <mxCell id="8WsJuOWBQjt2GqdeVyAg-31" value="Lambda Handler&lt;div&gt;&lt;br&gt;&lt;/div&gt;" style="text;html=1;align=center;verticalAlign=middle;resizable=0;points=[];autosize=1;strokeColor=none;fillColor=none;" parent="8WsJuOWBQjt2GqdeVyAg-50" vertex="1">
          <mxGeometry x="190" y="419" width="110" height="40" as="geometry" />
        </mxCell>
        <mxCell id="8WsJuOWBQjt2GqdeVyAg-2" value="" style="outlineConnect=0;dashed=0;verticalLabelPosition=bottom;verticalAlign=top;align=center;html=1;shape=mxgraph.aws3.lambda_function;fillColor=#F58534;gradientColor=none;" parent="8WsJuOWBQjt2GqdeVyAg-50" vertex="1">
          <mxGeometry x="210" y="349" width="70" height="70" as="geometry" />
        </mxCell>
        <mxCell id="8WsJuOWBQjt2GqdeVyAg-39" style="edgeStyle=orthogonalEdgeStyle;rounded=0;orthogonalLoop=1;jettySize=auto;html=1;" parent="8WsJuOWBQjt2GqdeVyAg-50" source="8WsJuOWBQjt2GqdeVyAg-2" target="8WsJuOWBQjt2GqdeVyAg-35" edge="1">
          <mxGeometry relative="1" as="geometry" />
        </mxCell>
        <mxCell id="8WsJuOWBQjt2GqdeVyAg-52" value="PutItem" style="edgeLabel;html=1;align=center;verticalAlign=middle;resizable=0;points=[];" parent="8WsJuOWBQjt2GqdeVyAg-39" vertex="1" connectable="0">
          <mxGeometry x="0.0048" y="-3" relative="1" as="geometry">
            <mxPoint x="2" as="offset" />
          </mxGeometry>
        </mxCell>
        <mxCell id="8WsJuOWBQjt2GqdeVyAg-32" value="Event Trigger" style="text;html=1;align=center;verticalAlign=middle;resizable=0;points=[];autosize=1;strokeColor=none;fillColor=none;fontSize=11;" parent="8WsJuOWBQjt2GqdeVyAg-50" vertex="1">
          <mxGeometry x="300" y="360" width="90" height="30" as="geometry" />
        </mxCell>
        <mxCell id="bDqPbvwDt9MesBcru4D--1" value="" style="sketch=0;outlineConnect=0;fontColor=#232F3E;gradientColor=none;fillColor=#DD344C;strokeColor=none;dashed=0;verticalLabelPosition=bottom;verticalAlign=top;align=center;html=1;fontSize=12;fontStyle=0;aspect=fixed;pointerEvents=1;shape=mxgraph.aws4.role;" vertex="1" parent="8WsJuOWBQjt2GqdeVyAg-50">
          <mxGeometry x="200" y="170" width="78" height="44" as="geometry" />
        </mxCell>
        <mxCell id="bDqPbvwDt9MesBcru4D--2" value="" style="endArrow=classic;html=1;rounded=0;exitX=0.855;exitY=0.145;exitDx=0;exitDy=0;exitPerimeter=0;entryX=0.893;entryY=0.886;entryDx=0;entryDy=0;entryPerimeter=0;dashed=1;" edge="1" parent="8WsJuOWBQjt2GqdeVyAg-50" source="8WsJuOWBQjt2GqdeVyAg-2" target="bDqPbvwDt9MesBcru4D--1">
          <mxGeometry width="50" height="50" relative="1" as="geometry">
            <mxPoint x="340" y="390" as="sourcePoint" />
            <mxPoint x="390" y="340" as="targetPoint" />
          </mxGeometry>
        </mxCell>
        <mxCell id="bDqPbvwDt9MesBcru4D--3" style="edgeStyle=orthogonalEdgeStyle;rounded=0;orthogonalLoop=1;jettySize=auto;html=1;entryX=0.145;entryY=0.145;entryDx=0;entryDy=0;entryPerimeter=0;dashed=1;" edge="1" parent="8WsJuOWBQjt2GqdeVyAg-50" source="bDqPbvwDt9MesBcru4D--1" target="8WsJuOWBQjt2GqdeVyAg-2">
          <mxGeometry relative="1" as="geometry">
            <Array as="points">
              <mxPoint x="220" y="200" />
              <mxPoint x="220" y="200" />
            </Array>
          </mxGeometry>
        </mxCell>
        <mxCell id="bDqPbvwDt9MesBcru4D--5" value="DynamoDB&amp;nbsp;&lt;br&gt;PutItem&lt;br&gt;Permission" style="text;html=1;align=center;verticalAlign=middle;resizable=0;points=[];autosize=1;strokeColor=none;fillColor=none;" vertex="1" parent="8WsJuOWBQjt2GqdeVyAg-50">
          <mxGeometry x="200" y="110" width="90" height="60" as="geometry" />
        </mxCell>
      </root>
    </mxGraphModel>
  </diagram>
</mxfile>
